%TF.GenerationSoftware,KiCad,Pcbnew,8.0.5*%
%TF.CreationDate,2024-11-04T18:15:50+01:00*%
%TF.ProjectId,spi master,73706920-6d61-4737-9465-722e6b696361,rev?*%
%TF.SameCoordinates,Original*%
%TF.FileFunction,Legend,Bot*%
%TF.FilePolarity,Positive*%
%FSLAX46Y46*%
G04 Gerber Fmt 4.6, Leading zero omitted, Abs format (unit mm)*
G04 Created by KiCad (PCBNEW 8.0.5) date 2024-11-04 18:15:50*
%MOMM*%
%LPD*%
G01*
G04 APERTURE LIST*
%ADD10C,0.150000*%
%ADD11C,0.120000*%
G04 APERTURE END LIST*
D10*
X198310619Y-99134493D02*
X199024904Y-99134493D01*
X199024904Y-99134493D02*
X199167761Y-99086874D01*
X199167761Y-99086874D02*
X199263000Y-98991636D01*
X199263000Y-98991636D02*
X199310619Y-98848779D01*
X199310619Y-98848779D02*
X199310619Y-98753541D01*
X199310619Y-100086874D02*
X199310619Y-99610684D01*
X199310619Y-99610684D02*
X198310619Y-99610684D01*
X199215380Y-100991636D02*
X199263000Y-100944017D01*
X199263000Y-100944017D02*
X199310619Y-100801160D01*
X199310619Y-100801160D02*
X199310619Y-100705922D01*
X199310619Y-100705922D02*
X199263000Y-100563065D01*
X199263000Y-100563065D02*
X199167761Y-100467827D01*
X199167761Y-100467827D02*
X199072523Y-100420208D01*
X199072523Y-100420208D02*
X198882047Y-100372589D01*
X198882047Y-100372589D02*
X198739190Y-100372589D01*
X198739190Y-100372589D02*
X198548714Y-100420208D01*
X198548714Y-100420208D02*
X198453476Y-100467827D01*
X198453476Y-100467827D02*
X198358238Y-100563065D01*
X198358238Y-100563065D02*
X198310619Y-100705922D01*
X198310619Y-100705922D02*
X198310619Y-100801160D01*
X198310619Y-100801160D02*
X198358238Y-100944017D01*
X198358238Y-100944017D02*
X198405857Y-100991636D01*
X198310619Y-101705922D02*
X199024904Y-101705922D01*
X199024904Y-101705922D02*
X199167761Y-101658303D01*
X199167761Y-101658303D02*
X199263000Y-101563065D01*
X199263000Y-101563065D02*
X199310619Y-101420208D01*
X199310619Y-101420208D02*
X199310619Y-101324970D01*
X199310619Y-102658303D02*
X199310619Y-102182113D01*
X199310619Y-102182113D02*
X198310619Y-102182113D01*
X199215380Y-103563065D02*
X199263000Y-103515446D01*
X199263000Y-103515446D02*
X199310619Y-103372589D01*
X199310619Y-103372589D02*
X199310619Y-103277351D01*
X199310619Y-103277351D02*
X199263000Y-103134494D01*
X199263000Y-103134494D02*
X199167761Y-103039256D01*
X199167761Y-103039256D02*
X199072523Y-102991637D01*
X199072523Y-102991637D02*
X198882047Y-102944018D01*
X198882047Y-102944018D02*
X198739190Y-102944018D01*
X198739190Y-102944018D02*
X198548714Y-102991637D01*
X198548714Y-102991637D02*
X198453476Y-103039256D01*
X198453476Y-103039256D02*
X198358238Y-103134494D01*
X198358238Y-103134494D02*
X198310619Y-103277351D01*
X198310619Y-103277351D02*
X198310619Y-103372589D01*
X198310619Y-103372589D02*
X198358238Y-103515446D01*
X198358238Y-103515446D02*
X198405857Y-103563065D01*
X198310619Y-104277351D02*
X199024904Y-104277351D01*
X199024904Y-104277351D02*
X199167761Y-104229732D01*
X199167761Y-104229732D02*
X199263000Y-104134494D01*
X199263000Y-104134494D02*
X199310619Y-103991637D01*
X199310619Y-103991637D02*
X199310619Y-103896399D01*
X199310619Y-105229732D02*
X199310619Y-104753542D01*
X199310619Y-104753542D02*
X198310619Y-104753542D01*
X199215380Y-106134494D02*
X199263000Y-106086875D01*
X199263000Y-106086875D02*
X199310619Y-105944018D01*
X199310619Y-105944018D02*
X199310619Y-105848780D01*
X199310619Y-105848780D02*
X199263000Y-105705923D01*
X199263000Y-105705923D02*
X199167761Y-105610685D01*
X199167761Y-105610685D02*
X199072523Y-105563066D01*
X199072523Y-105563066D02*
X198882047Y-105515447D01*
X198882047Y-105515447D02*
X198739190Y-105515447D01*
X198739190Y-105515447D02*
X198548714Y-105563066D01*
X198548714Y-105563066D02*
X198453476Y-105610685D01*
X198453476Y-105610685D02*
X198358238Y-105705923D01*
X198358238Y-105705923D02*
X198310619Y-105848780D01*
X198310619Y-105848780D02*
X198310619Y-105944018D01*
X198310619Y-105944018D02*
X198358238Y-106086875D01*
X198358238Y-106086875D02*
X198405857Y-106134494D01*
X198310619Y-106848780D02*
X199024904Y-106848780D01*
X199024904Y-106848780D02*
X199167761Y-106801161D01*
X199167761Y-106801161D02*
X199263000Y-106705923D01*
X199263000Y-106705923D02*
X199310619Y-106563066D01*
X199310619Y-106563066D02*
X199310619Y-106467828D01*
X199310619Y-107801161D02*
X199310619Y-107324971D01*
X199310619Y-107324971D02*
X198310619Y-107324971D01*
X199215380Y-108705923D02*
X199263000Y-108658304D01*
X199263000Y-108658304D02*
X199310619Y-108515447D01*
X199310619Y-108515447D02*
X199310619Y-108420209D01*
X199310619Y-108420209D02*
X199263000Y-108277352D01*
X199263000Y-108277352D02*
X199167761Y-108182114D01*
X199167761Y-108182114D02*
X199072523Y-108134495D01*
X199072523Y-108134495D02*
X198882047Y-108086876D01*
X198882047Y-108086876D02*
X198739190Y-108086876D01*
X198739190Y-108086876D02*
X198548714Y-108134495D01*
X198548714Y-108134495D02*
X198453476Y-108182114D01*
X198453476Y-108182114D02*
X198358238Y-108277352D01*
X198358238Y-108277352D02*
X198310619Y-108420209D01*
X198310619Y-108420209D02*
X198310619Y-108515447D01*
X198310619Y-108515447D02*
X198358238Y-108658304D01*
X198358238Y-108658304D02*
X198405857Y-108705923D01*
X186400839Y-107142363D02*
X186400839Y-106342363D01*
X186400839Y-106647125D02*
X186324649Y-106609029D01*
X186324649Y-106609029D02*
X186172268Y-106609029D01*
X186172268Y-106609029D02*
X186096077Y-106647125D01*
X186096077Y-106647125D02*
X186057982Y-106685220D01*
X186057982Y-106685220D02*
X186019887Y-106761410D01*
X186019887Y-106761410D02*
X186019887Y-106989982D01*
X186019887Y-106989982D02*
X186057982Y-107066172D01*
X186057982Y-107066172D02*
X186096077Y-107104268D01*
X186096077Y-107104268D02*
X186172268Y-107142363D01*
X186172268Y-107142363D02*
X186324649Y-107142363D01*
X186324649Y-107142363D02*
X186400839Y-107104268D01*
X185753220Y-106609029D02*
X185562744Y-107142363D01*
X185372267Y-106609029D02*
X185562744Y-107142363D01*
X185562744Y-107142363D02*
X185638934Y-107332839D01*
X185638934Y-107332839D02*
X185677029Y-107370934D01*
X185677029Y-107370934D02*
X185753220Y-107409029D01*
X184457981Y-107142363D02*
X184457981Y-106342363D01*
X184457981Y-106342363D02*
X184000838Y-107142363D01*
X184000838Y-107142363D02*
X184000838Y-106342363D01*
X183277029Y-107142363D02*
X183277029Y-106723315D01*
X183277029Y-106723315D02*
X183315124Y-106647125D01*
X183315124Y-106647125D02*
X183391315Y-106609029D01*
X183391315Y-106609029D02*
X183543696Y-106609029D01*
X183543696Y-106609029D02*
X183619886Y-106647125D01*
X183277029Y-107104268D02*
X183353220Y-107142363D01*
X183353220Y-107142363D02*
X183543696Y-107142363D01*
X183543696Y-107142363D02*
X183619886Y-107104268D01*
X183619886Y-107104268D02*
X183657982Y-107028077D01*
X183657982Y-107028077D02*
X183657982Y-106951887D01*
X183657982Y-106951887D02*
X183619886Y-106875696D01*
X183619886Y-106875696D02*
X183543696Y-106837601D01*
X183543696Y-106837601D02*
X183353220Y-106837601D01*
X183353220Y-106837601D02*
X183277029Y-106799506D01*
X183010362Y-106609029D02*
X182705600Y-106609029D01*
X182896076Y-106342363D02*
X182896076Y-107028077D01*
X182896076Y-107028077D02*
X182857981Y-107104268D01*
X182857981Y-107104268D02*
X182781791Y-107142363D01*
X182781791Y-107142363D02*
X182705600Y-107142363D01*
X182134171Y-107104268D02*
X182210362Y-107142363D01*
X182210362Y-107142363D02*
X182362743Y-107142363D01*
X182362743Y-107142363D02*
X182438933Y-107104268D01*
X182438933Y-107104268D02*
X182477029Y-107028077D01*
X182477029Y-107028077D02*
X182477029Y-106723315D01*
X182477029Y-106723315D02*
X182438933Y-106647125D01*
X182438933Y-106647125D02*
X182362743Y-106609029D01*
X182362743Y-106609029D02*
X182210362Y-106609029D01*
X182210362Y-106609029D02*
X182134171Y-106647125D01*
X182134171Y-106647125D02*
X182096076Y-106723315D01*
X182096076Y-106723315D02*
X182096076Y-106799506D01*
X182096076Y-106799506D02*
X182477029Y-106875696D01*
X180686552Y-107142363D02*
X180953219Y-106761410D01*
X181143695Y-107142363D02*
X181143695Y-106342363D01*
X181143695Y-106342363D02*
X180838933Y-106342363D01*
X180838933Y-106342363D02*
X180762743Y-106380458D01*
X180762743Y-106380458D02*
X180724648Y-106418553D01*
X180724648Y-106418553D02*
X180686552Y-106494744D01*
X180686552Y-106494744D02*
X180686552Y-106609029D01*
X180686552Y-106609029D02*
X180724648Y-106685220D01*
X180724648Y-106685220D02*
X180762743Y-106723315D01*
X180762743Y-106723315D02*
X180838933Y-106761410D01*
X180838933Y-106761410D02*
X181143695Y-106761410D01*
X180343695Y-107142363D02*
X180343695Y-106609029D01*
X180343695Y-106342363D02*
X180381791Y-106380458D01*
X180381791Y-106380458D02*
X180343695Y-106418553D01*
X180343695Y-106418553D02*
X180305600Y-106380458D01*
X180305600Y-106380458D02*
X180343695Y-106342363D01*
X180343695Y-106342363D02*
X180343695Y-106418553D01*
X180038934Y-106609029D02*
X179848458Y-107142363D01*
X179848458Y-107142363D02*
X179657981Y-106609029D01*
X179010362Y-107142363D02*
X179010362Y-106723315D01*
X179010362Y-106723315D02*
X179048457Y-106647125D01*
X179048457Y-106647125D02*
X179124648Y-106609029D01*
X179124648Y-106609029D02*
X179277029Y-106609029D01*
X179277029Y-106609029D02*
X179353219Y-106647125D01*
X179010362Y-107104268D02*
X179086553Y-107142363D01*
X179086553Y-107142363D02*
X179277029Y-107142363D01*
X179277029Y-107142363D02*
X179353219Y-107104268D01*
X179353219Y-107104268D02*
X179391315Y-107028077D01*
X179391315Y-107028077D02*
X179391315Y-106951887D01*
X179391315Y-106951887D02*
X179353219Y-106875696D01*
X179353219Y-106875696D02*
X179277029Y-106837601D01*
X179277029Y-106837601D02*
X179086553Y-106837601D01*
X179086553Y-106837601D02*
X179010362Y-106799506D01*
X178629409Y-107142363D02*
X178629409Y-106609029D01*
X178629409Y-106761410D02*
X178591314Y-106685220D01*
X178591314Y-106685220D02*
X178553219Y-106647125D01*
X178553219Y-106647125D02*
X178477028Y-106609029D01*
X178477028Y-106609029D02*
X178400838Y-106609029D01*
X177791314Y-107142363D02*
X177791314Y-106342363D01*
X177791314Y-107104268D02*
X177867505Y-107142363D01*
X177867505Y-107142363D02*
X178019886Y-107142363D01*
X178019886Y-107142363D02*
X178096076Y-107104268D01*
X178096076Y-107104268D02*
X178134171Y-107066172D01*
X178134171Y-107066172D02*
X178172267Y-106989982D01*
X178172267Y-106989982D02*
X178172267Y-106761410D01*
X178172267Y-106761410D02*
X178134171Y-106685220D01*
X178134171Y-106685220D02*
X178096076Y-106647125D01*
X178096076Y-106647125D02*
X178019886Y-106609029D01*
X178019886Y-106609029D02*
X177867505Y-106609029D01*
X177867505Y-106609029D02*
X177791314Y-106647125D01*
X186400839Y-108430318D02*
X186400839Y-107630318D01*
X186057982Y-108430318D02*
X186057982Y-108011270D01*
X186057982Y-108011270D02*
X186096077Y-107935080D01*
X186096077Y-107935080D02*
X186172268Y-107896984D01*
X186172268Y-107896984D02*
X186286554Y-107896984D01*
X186286554Y-107896984D02*
X186362744Y-107935080D01*
X186362744Y-107935080D02*
X186400839Y-107973175D01*
X185791315Y-107896984D02*
X185486553Y-107896984D01*
X185677029Y-107630318D02*
X185677029Y-108316032D01*
X185677029Y-108316032D02*
X185638934Y-108392223D01*
X185638934Y-108392223D02*
X185562744Y-108430318D01*
X185562744Y-108430318D02*
X185486553Y-108430318D01*
X185334172Y-107896984D02*
X185029410Y-107896984D01*
X185219886Y-107630318D02*
X185219886Y-108316032D01*
X185219886Y-108316032D02*
X185181791Y-108392223D01*
X185181791Y-108392223D02*
X185105601Y-108430318D01*
X185105601Y-108430318D02*
X185029410Y-108430318D01*
X184762743Y-107896984D02*
X184762743Y-108696984D01*
X184762743Y-107935080D02*
X184686553Y-107896984D01*
X184686553Y-107896984D02*
X184534172Y-107896984D01*
X184534172Y-107896984D02*
X184457981Y-107935080D01*
X184457981Y-107935080D02*
X184419886Y-107973175D01*
X184419886Y-107973175D02*
X184381791Y-108049365D01*
X184381791Y-108049365D02*
X184381791Y-108277937D01*
X184381791Y-108277937D02*
X184419886Y-108354127D01*
X184419886Y-108354127D02*
X184457981Y-108392223D01*
X184457981Y-108392223D02*
X184534172Y-108430318D01*
X184534172Y-108430318D02*
X184686553Y-108430318D01*
X184686553Y-108430318D02*
X184762743Y-108392223D01*
X184077029Y-108392223D02*
X184000838Y-108430318D01*
X184000838Y-108430318D02*
X183848457Y-108430318D01*
X183848457Y-108430318D02*
X183772267Y-108392223D01*
X183772267Y-108392223D02*
X183734171Y-108316032D01*
X183734171Y-108316032D02*
X183734171Y-108277937D01*
X183734171Y-108277937D02*
X183772267Y-108201746D01*
X183772267Y-108201746D02*
X183848457Y-108163651D01*
X183848457Y-108163651D02*
X183962743Y-108163651D01*
X183962743Y-108163651D02*
X184038933Y-108125556D01*
X184038933Y-108125556D02*
X184077029Y-108049365D01*
X184077029Y-108049365D02*
X184077029Y-108011270D01*
X184077029Y-108011270D02*
X184038933Y-107935080D01*
X184038933Y-107935080D02*
X183962743Y-107896984D01*
X183962743Y-107896984D02*
X183848457Y-107896984D01*
X183848457Y-107896984D02*
X183772267Y-107935080D01*
X183391314Y-108354127D02*
X183353219Y-108392223D01*
X183353219Y-108392223D02*
X183391314Y-108430318D01*
X183391314Y-108430318D02*
X183429410Y-108392223D01*
X183429410Y-108392223D02*
X183391314Y-108354127D01*
X183391314Y-108354127D02*
X183391314Y-108430318D01*
X183391314Y-107935080D02*
X183353219Y-107973175D01*
X183353219Y-107973175D02*
X183391314Y-108011270D01*
X183391314Y-108011270D02*
X183429410Y-107973175D01*
X183429410Y-107973175D02*
X183391314Y-107935080D01*
X183391314Y-107935080D02*
X183391314Y-108011270D01*
X182438934Y-107592223D02*
X183124648Y-108620794D01*
X181600839Y-107592223D02*
X182286553Y-108620794D01*
X180991315Y-107896984D02*
X180991315Y-108544603D01*
X180991315Y-108544603D02*
X181029410Y-108620794D01*
X181029410Y-108620794D02*
X181067506Y-108658889D01*
X181067506Y-108658889D02*
X181143696Y-108696984D01*
X181143696Y-108696984D02*
X181257982Y-108696984D01*
X181257982Y-108696984D02*
X181334172Y-108658889D01*
X180991315Y-108392223D02*
X181067506Y-108430318D01*
X181067506Y-108430318D02*
X181219887Y-108430318D01*
X181219887Y-108430318D02*
X181296077Y-108392223D01*
X181296077Y-108392223D02*
X181334172Y-108354127D01*
X181334172Y-108354127D02*
X181372268Y-108277937D01*
X181372268Y-108277937D02*
X181372268Y-108049365D01*
X181372268Y-108049365D02*
X181334172Y-107973175D01*
X181334172Y-107973175D02*
X181296077Y-107935080D01*
X181296077Y-107935080D02*
X181219887Y-107896984D01*
X181219887Y-107896984D02*
X181067506Y-107896984D01*
X181067506Y-107896984D02*
X180991315Y-107935080D01*
X180610362Y-108430318D02*
X180610362Y-107896984D01*
X180610362Y-107630318D02*
X180648458Y-107668413D01*
X180648458Y-107668413D02*
X180610362Y-107706508D01*
X180610362Y-107706508D02*
X180572267Y-107668413D01*
X180572267Y-107668413D02*
X180610362Y-107630318D01*
X180610362Y-107630318D02*
X180610362Y-107706508D01*
X180343696Y-107896984D02*
X180038934Y-107896984D01*
X180229410Y-107630318D02*
X180229410Y-108316032D01*
X180229410Y-108316032D02*
X180191315Y-108392223D01*
X180191315Y-108392223D02*
X180115125Y-108430318D01*
X180115125Y-108430318D02*
X180038934Y-108430318D01*
X179772267Y-108430318D02*
X179772267Y-107630318D01*
X179429410Y-108430318D02*
X179429410Y-108011270D01*
X179429410Y-108011270D02*
X179467505Y-107935080D01*
X179467505Y-107935080D02*
X179543696Y-107896984D01*
X179543696Y-107896984D02*
X179657982Y-107896984D01*
X179657982Y-107896984D02*
X179734172Y-107935080D01*
X179734172Y-107935080D02*
X179772267Y-107973175D01*
X178705600Y-107896984D02*
X178705600Y-108430318D01*
X179048457Y-107896984D02*
X179048457Y-108316032D01*
X179048457Y-108316032D02*
X179010362Y-108392223D01*
X179010362Y-108392223D02*
X178934172Y-108430318D01*
X178934172Y-108430318D02*
X178819886Y-108430318D01*
X178819886Y-108430318D02*
X178743695Y-108392223D01*
X178743695Y-108392223D02*
X178705600Y-108354127D01*
X178324647Y-108430318D02*
X178324647Y-107630318D01*
X178324647Y-107935080D02*
X178248457Y-107896984D01*
X178248457Y-107896984D02*
X178096076Y-107896984D01*
X178096076Y-107896984D02*
X178019885Y-107935080D01*
X178019885Y-107935080D02*
X177981790Y-107973175D01*
X177981790Y-107973175D02*
X177943695Y-108049365D01*
X177943695Y-108049365D02*
X177943695Y-108277937D01*
X177943695Y-108277937D02*
X177981790Y-108354127D01*
X177981790Y-108354127D02*
X178019885Y-108392223D01*
X178019885Y-108392223D02*
X178096076Y-108430318D01*
X178096076Y-108430318D02*
X178248457Y-108430318D01*
X178248457Y-108430318D02*
X178324647Y-108392223D01*
X177600837Y-108354127D02*
X177562742Y-108392223D01*
X177562742Y-108392223D02*
X177600837Y-108430318D01*
X177600837Y-108430318D02*
X177638933Y-108392223D01*
X177638933Y-108392223D02*
X177600837Y-108354127D01*
X177600837Y-108354127D02*
X177600837Y-108430318D01*
X176877028Y-108392223D02*
X176953219Y-108430318D01*
X176953219Y-108430318D02*
X177105600Y-108430318D01*
X177105600Y-108430318D02*
X177181790Y-108392223D01*
X177181790Y-108392223D02*
X177219885Y-108354127D01*
X177219885Y-108354127D02*
X177257981Y-108277937D01*
X177257981Y-108277937D02*
X177257981Y-108049365D01*
X177257981Y-108049365D02*
X177219885Y-107973175D01*
X177219885Y-107973175D02*
X177181790Y-107935080D01*
X177181790Y-107935080D02*
X177105600Y-107896984D01*
X177105600Y-107896984D02*
X176953219Y-107896984D01*
X176953219Y-107896984D02*
X176877028Y-107935080D01*
X176419886Y-108430318D02*
X176496076Y-108392223D01*
X176496076Y-108392223D02*
X176534171Y-108354127D01*
X176534171Y-108354127D02*
X176572267Y-108277937D01*
X176572267Y-108277937D02*
X176572267Y-108049365D01*
X176572267Y-108049365D02*
X176534171Y-107973175D01*
X176534171Y-107973175D02*
X176496076Y-107935080D01*
X176496076Y-107935080D02*
X176419886Y-107896984D01*
X176419886Y-107896984D02*
X176305600Y-107896984D01*
X176305600Y-107896984D02*
X176229409Y-107935080D01*
X176229409Y-107935080D02*
X176191314Y-107973175D01*
X176191314Y-107973175D02*
X176153219Y-108049365D01*
X176153219Y-108049365D02*
X176153219Y-108277937D01*
X176153219Y-108277937D02*
X176191314Y-108354127D01*
X176191314Y-108354127D02*
X176229409Y-108392223D01*
X176229409Y-108392223D02*
X176305600Y-108430318D01*
X176305600Y-108430318D02*
X176419886Y-108430318D01*
X175810361Y-108430318D02*
X175810361Y-107896984D01*
X175810361Y-107973175D02*
X175772266Y-107935080D01*
X175772266Y-107935080D02*
X175696076Y-107896984D01*
X175696076Y-107896984D02*
X175581790Y-107896984D01*
X175581790Y-107896984D02*
X175505599Y-107935080D01*
X175505599Y-107935080D02*
X175467504Y-108011270D01*
X175467504Y-108011270D02*
X175467504Y-108430318D01*
X175467504Y-108011270D02*
X175429409Y-107935080D01*
X175429409Y-107935080D02*
X175353218Y-107896984D01*
X175353218Y-107896984D02*
X175238933Y-107896984D01*
X175238933Y-107896984D02*
X175162742Y-107935080D01*
X175162742Y-107935080D02*
X175124647Y-108011270D01*
X175124647Y-108011270D02*
X175124647Y-108430318D01*
X174172266Y-107592223D02*
X174857980Y-108620794D01*
X173905599Y-107896984D02*
X173905599Y-108430318D01*
X173905599Y-107973175D02*
X173867504Y-107935080D01*
X173867504Y-107935080D02*
X173791314Y-107896984D01*
X173791314Y-107896984D02*
X173677028Y-107896984D01*
X173677028Y-107896984D02*
X173600837Y-107935080D01*
X173600837Y-107935080D02*
X173562742Y-108011270D01*
X173562742Y-108011270D02*
X173562742Y-108430318D01*
X173181789Y-108430318D02*
X173181789Y-107896984D01*
X173181789Y-108049365D02*
X173143694Y-107973175D01*
X173143694Y-107973175D02*
X173105599Y-107935080D01*
X173105599Y-107935080D02*
X173029408Y-107896984D01*
X173029408Y-107896984D02*
X172953218Y-107896984D01*
X172686551Y-108430318D02*
X172686551Y-107896984D01*
X172686551Y-107630318D02*
X172724647Y-107668413D01*
X172724647Y-107668413D02*
X172686551Y-107706508D01*
X172686551Y-107706508D02*
X172648456Y-107668413D01*
X172648456Y-107668413D02*
X172686551Y-107630318D01*
X172686551Y-107630318D02*
X172686551Y-107706508D01*
X172381790Y-107896984D02*
X172191314Y-108430318D01*
X172191314Y-108430318D02*
X172000837Y-107896984D01*
X171353218Y-108430318D02*
X171353218Y-108011270D01*
X171353218Y-108011270D02*
X171391313Y-107935080D01*
X171391313Y-107935080D02*
X171467504Y-107896984D01*
X171467504Y-107896984D02*
X171619885Y-107896984D01*
X171619885Y-107896984D02*
X171696075Y-107935080D01*
X171353218Y-108392223D02*
X171429409Y-108430318D01*
X171429409Y-108430318D02*
X171619885Y-108430318D01*
X171619885Y-108430318D02*
X171696075Y-108392223D01*
X171696075Y-108392223D02*
X171734171Y-108316032D01*
X171734171Y-108316032D02*
X171734171Y-108239842D01*
X171734171Y-108239842D02*
X171696075Y-108163651D01*
X171696075Y-108163651D02*
X171619885Y-108125556D01*
X171619885Y-108125556D02*
X171429409Y-108125556D01*
X171429409Y-108125556D02*
X171353218Y-108087461D01*
X170972265Y-108430318D02*
X170972265Y-107896984D01*
X170972265Y-108049365D02*
X170934170Y-107973175D01*
X170934170Y-107973175D02*
X170896075Y-107935080D01*
X170896075Y-107935080D02*
X170819884Y-107896984D01*
X170819884Y-107896984D02*
X170743694Y-107896984D01*
X170134170Y-108430318D02*
X170134170Y-107630318D01*
X170134170Y-108392223D02*
X170210361Y-108430318D01*
X170210361Y-108430318D02*
X170362742Y-108430318D01*
X170362742Y-108430318D02*
X170438932Y-108392223D01*
X170438932Y-108392223D02*
X170477027Y-108354127D01*
X170477027Y-108354127D02*
X170515123Y-108277937D01*
X170515123Y-108277937D02*
X170515123Y-108049365D01*
X170515123Y-108049365D02*
X170477027Y-107973175D01*
X170477027Y-107973175D02*
X170438932Y-107935080D01*
X170438932Y-107935080D02*
X170362742Y-107896984D01*
X170362742Y-107896984D02*
X170210361Y-107896984D01*
X170210361Y-107896984D02*
X170134170Y-107935080D01*
X169181789Y-107592223D02*
X169867503Y-108620794D01*
X168915122Y-107896984D02*
X168915122Y-108430318D01*
X168915122Y-107973175D02*
X168877027Y-107935080D01*
X168877027Y-107935080D02*
X168800837Y-107896984D01*
X168800837Y-107896984D02*
X168686551Y-107896984D01*
X168686551Y-107896984D02*
X168610360Y-107935080D01*
X168610360Y-107935080D02*
X168572265Y-108011270D01*
X168572265Y-108011270D02*
X168572265Y-108430318D01*
X168077027Y-107973175D02*
X168153217Y-107935080D01*
X168153217Y-107935080D02*
X168191312Y-107896984D01*
X168191312Y-107896984D02*
X168229408Y-107820794D01*
X168229408Y-107820794D02*
X168229408Y-107782699D01*
X168229408Y-107782699D02*
X168191312Y-107706508D01*
X168191312Y-107706508D02*
X168153217Y-107668413D01*
X168153217Y-107668413D02*
X168077027Y-107630318D01*
X168077027Y-107630318D02*
X167924646Y-107630318D01*
X167924646Y-107630318D02*
X167848455Y-107668413D01*
X167848455Y-107668413D02*
X167810360Y-107706508D01*
X167810360Y-107706508D02*
X167772265Y-107782699D01*
X167772265Y-107782699D02*
X167772265Y-107820794D01*
X167772265Y-107820794D02*
X167810360Y-107896984D01*
X167810360Y-107896984D02*
X167848455Y-107935080D01*
X167848455Y-107935080D02*
X167924646Y-107973175D01*
X167924646Y-107973175D02*
X168077027Y-107973175D01*
X168077027Y-107973175D02*
X168153217Y-108011270D01*
X168153217Y-108011270D02*
X168191312Y-108049365D01*
X168191312Y-108049365D02*
X168229408Y-108125556D01*
X168229408Y-108125556D02*
X168229408Y-108277937D01*
X168229408Y-108277937D02*
X168191312Y-108354127D01*
X168191312Y-108354127D02*
X168153217Y-108392223D01*
X168153217Y-108392223D02*
X168077027Y-108430318D01*
X168077027Y-108430318D02*
X167924646Y-108430318D01*
X167924646Y-108430318D02*
X167848455Y-108392223D01*
X167848455Y-108392223D02*
X167810360Y-108354127D01*
X167810360Y-108354127D02*
X167772265Y-108277937D01*
X167772265Y-108277937D02*
X167772265Y-108125556D01*
X167772265Y-108125556D02*
X167810360Y-108049365D01*
X167810360Y-108049365D02*
X167848455Y-108011270D01*
X167848455Y-108011270D02*
X167924646Y-107973175D01*
X167429407Y-108125556D02*
X166819884Y-108125556D01*
X166438931Y-108430318D02*
X166438931Y-107630318D01*
X166438931Y-107935080D02*
X166362741Y-107896984D01*
X166362741Y-107896984D02*
X166210360Y-107896984D01*
X166210360Y-107896984D02*
X166134169Y-107935080D01*
X166134169Y-107935080D02*
X166096074Y-107973175D01*
X166096074Y-107973175D02*
X166057979Y-108049365D01*
X166057979Y-108049365D02*
X166057979Y-108277937D01*
X166057979Y-108277937D02*
X166096074Y-108354127D01*
X166096074Y-108354127D02*
X166134169Y-108392223D01*
X166134169Y-108392223D02*
X166210360Y-108430318D01*
X166210360Y-108430318D02*
X166362741Y-108430318D01*
X166362741Y-108430318D02*
X166438931Y-108392223D01*
X165715121Y-108430318D02*
X165715121Y-107896984D01*
X165715121Y-107630318D02*
X165753217Y-107668413D01*
X165753217Y-107668413D02*
X165715121Y-107706508D01*
X165715121Y-107706508D02*
X165677026Y-107668413D01*
X165677026Y-107668413D02*
X165715121Y-107630318D01*
X165715121Y-107630318D02*
X165715121Y-107706508D01*
X165448455Y-107896984D02*
X165143693Y-107896984D01*
X165334169Y-107630318D02*
X165334169Y-108316032D01*
X165334169Y-108316032D02*
X165296074Y-108392223D01*
X165296074Y-108392223D02*
X165219884Y-108430318D01*
X165219884Y-108430318D02*
X165143693Y-108430318D01*
X186515125Y-108918273D02*
X186248458Y-109718273D01*
X186248458Y-109718273D02*
X185981792Y-108918273D01*
X185410363Y-109680178D02*
X185486554Y-109718273D01*
X185486554Y-109718273D02*
X185638935Y-109718273D01*
X185638935Y-109718273D02*
X185715125Y-109680178D01*
X185715125Y-109680178D02*
X185753221Y-109603987D01*
X185753221Y-109603987D02*
X185753221Y-109299225D01*
X185753221Y-109299225D02*
X185715125Y-109223035D01*
X185715125Y-109223035D02*
X185638935Y-109184939D01*
X185638935Y-109184939D02*
X185486554Y-109184939D01*
X185486554Y-109184939D02*
X185410363Y-109223035D01*
X185410363Y-109223035D02*
X185372268Y-109299225D01*
X185372268Y-109299225D02*
X185372268Y-109375416D01*
X185372268Y-109375416D02*
X185753221Y-109451606D01*
X185029411Y-109718273D02*
X185029411Y-109184939D01*
X185029411Y-109337320D02*
X184991316Y-109261130D01*
X184991316Y-109261130D02*
X184953221Y-109223035D01*
X184953221Y-109223035D02*
X184877030Y-109184939D01*
X184877030Y-109184939D02*
X184800840Y-109184939D01*
X184572269Y-109680178D02*
X184496078Y-109718273D01*
X184496078Y-109718273D02*
X184343697Y-109718273D01*
X184343697Y-109718273D02*
X184267507Y-109680178D01*
X184267507Y-109680178D02*
X184229411Y-109603987D01*
X184229411Y-109603987D02*
X184229411Y-109565892D01*
X184229411Y-109565892D02*
X184267507Y-109489701D01*
X184267507Y-109489701D02*
X184343697Y-109451606D01*
X184343697Y-109451606D02*
X184457983Y-109451606D01*
X184457983Y-109451606D02*
X184534173Y-109413511D01*
X184534173Y-109413511D02*
X184572269Y-109337320D01*
X184572269Y-109337320D02*
X184572269Y-109299225D01*
X184572269Y-109299225D02*
X184534173Y-109223035D01*
X184534173Y-109223035D02*
X184457983Y-109184939D01*
X184457983Y-109184939D02*
X184343697Y-109184939D01*
X184343697Y-109184939D02*
X184267507Y-109223035D01*
X183886554Y-109718273D02*
X183886554Y-109184939D01*
X183886554Y-108918273D02*
X183924650Y-108956368D01*
X183924650Y-108956368D02*
X183886554Y-108994463D01*
X183886554Y-108994463D02*
X183848459Y-108956368D01*
X183848459Y-108956368D02*
X183886554Y-108918273D01*
X183886554Y-108918273D02*
X183886554Y-108994463D01*
X183391317Y-109718273D02*
X183467507Y-109680178D01*
X183467507Y-109680178D02*
X183505602Y-109642082D01*
X183505602Y-109642082D02*
X183543698Y-109565892D01*
X183543698Y-109565892D02*
X183543698Y-109337320D01*
X183543698Y-109337320D02*
X183505602Y-109261130D01*
X183505602Y-109261130D02*
X183467507Y-109223035D01*
X183467507Y-109223035D02*
X183391317Y-109184939D01*
X183391317Y-109184939D02*
X183277031Y-109184939D01*
X183277031Y-109184939D02*
X183200840Y-109223035D01*
X183200840Y-109223035D02*
X183162745Y-109261130D01*
X183162745Y-109261130D02*
X183124650Y-109337320D01*
X183124650Y-109337320D02*
X183124650Y-109565892D01*
X183124650Y-109565892D02*
X183162745Y-109642082D01*
X183162745Y-109642082D02*
X183200840Y-109680178D01*
X183200840Y-109680178D02*
X183277031Y-109718273D01*
X183277031Y-109718273D02*
X183391317Y-109718273D01*
X182781792Y-109184939D02*
X182781792Y-109718273D01*
X182781792Y-109261130D02*
X182743697Y-109223035D01*
X182743697Y-109223035D02*
X182667507Y-109184939D01*
X182667507Y-109184939D02*
X182553221Y-109184939D01*
X182553221Y-109184939D02*
X182477030Y-109223035D01*
X182477030Y-109223035D02*
X182438935Y-109299225D01*
X182438935Y-109299225D02*
X182438935Y-109718273D01*
X181029411Y-109718273D02*
X181486554Y-109718273D01*
X181257982Y-109718273D02*
X181257982Y-108918273D01*
X181257982Y-108918273D02*
X181334173Y-109032558D01*
X181334173Y-109032558D02*
X181410363Y-109108749D01*
X181410363Y-109108749D02*
X181486554Y-109146844D01*
X186400839Y-111006228D02*
X186400839Y-110206228D01*
X186400839Y-110206228D02*
X185943696Y-111006228D01*
X185943696Y-111006228D02*
X185943696Y-110206228D01*
X185448459Y-111006228D02*
X185524649Y-110968133D01*
X185524649Y-110968133D02*
X185562744Y-110930037D01*
X185562744Y-110930037D02*
X185600840Y-110853847D01*
X185600840Y-110853847D02*
X185600840Y-110625275D01*
X185600840Y-110625275D02*
X185562744Y-110549085D01*
X185562744Y-110549085D02*
X185524649Y-110510990D01*
X185524649Y-110510990D02*
X185448459Y-110472894D01*
X185448459Y-110472894D02*
X185334173Y-110472894D01*
X185334173Y-110472894D02*
X185257982Y-110510990D01*
X185257982Y-110510990D02*
X185219887Y-110549085D01*
X185219887Y-110549085D02*
X185181792Y-110625275D01*
X185181792Y-110625275D02*
X185181792Y-110853847D01*
X185181792Y-110853847D02*
X185219887Y-110930037D01*
X185219887Y-110930037D02*
X185257982Y-110968133D01*
X185257982Y-110968133D02*
X185334173Y-111006228D01*
X185334173Y-111006228D02*
X185448459Y-111006228D01*
X184915125Y-110472894D02*
X184724649Y-111006228D01*
X184724649Y-111006228D02*
X184534172Y-110472894D01*
X183657982Y-110282418D02*
X183619886Y-110244323D01*
X183619886Y-110244323D02*
X183543696Y-110206228D01*
X183543696Y-110206228D02*
X183353220Y-110206228D01*
X183353220Y-110206228D02*
X183277029Y-110244323D01*
X183277029Y-110244323D02*
X183238934Y-110282418D01*
X183238934Y-110282418D02*
X183200839Y-110358609D01*
X183200839Y-110358609D02*
X183200839Y-110434799D01*
X183200839Y-110434799D02*
X183238934Y-110549085D01*
X183238934Y-110549085D02*
X183696077Y-111006228D01*
X183696077Y-111006228D02*
X183200839Y-111006228D01*
X182705600Y-110206228D02*
X182629410Y-110206228D01*
X182629410Y-110206228D02*
X182553219Y-110244323D01*
X182553219Y-110244323D02*
X182515124Y-110282418D01*
X182515124Y-110282418D02*
X182477029Y-110358609D01*
X182477029Y-110358609D02*
X182438934Y-110510990D01*
X182438934Y-110510990D02*
X182438934Y-110701466D01*
X182438934Y-110701466D02*
X182477029Y-110853847D01*
X182477029Y-110853847D02*
X182515124Y-110930037D01*
X182515124Y-110930037D02*
X182553219Y-110968133D01*
X182553219Y-110968133D02*
X182629410Y-111006228D01*
X182629410Y-111006228D02*
X182705600Y-111006228D01*
X182705600Y-111006228D02*
X182781791Y-110968133D01*
X182781791Y-110968133D02*
X182819886Y-110930037D01*
X182819886Y-110930037D02*
X182857981Y-110853847D01*
X182857981Y-110853847D02*
X182896077Y-110701466D01*
X182896077Y-110701466D02*
X182896077Y-110510990D01*
X182896077Y-110510990D02*
X182857981Y-110358609D01*
X182857981Y-110358609D02*
X182819886Y-110282418D01*
X182819886Y-110282418D02*
X182781791Y-110244323D01*
X182781791Y-110244323D02*
X182705600Y-110206228D01*
X182134172Y-110282418D02*
X182096076Y-110244323D01*
X182096076Y-110244323D02*
X182019886Y-110206228D01*
X182019886Y-110206228D02*
X181829410Y-110206228D01*
X181829410Y-110206228D02*
X181753219Y-110244323D01*
X181753219Y-110244323D02*
X181715124Y-110282418D01*
X181715124Y-110282418D02*
X181677029Y-110358609D01*
X181677029Y-110358609D02*
X181677029Y-110434799D01*
X181677029Y-110434799D02*
X181715124Y-110549085D01*
X181715124Y-110549085D02*
X182172267Y-111006228D01*
X182172267Y-111006228D02*
X181677029Y-111006228D01*
X180991314Y-110472894D02*
X180991314Y-111006228D01*
X181181790Y-110168133D02*
X181372267Y-110739561D01*
X181372267Y-110739561D02*
X180877028Y-110739561D01*
X195034819Y-102028666D02*
X195749104Y-102028666D01*
X195749104Y-102028666D02*
X195891961Y-101981047D01*
X195891961Y-101981047D02*
X195987200Y-101885809D01*
X195987200Y-101885809D02*
X196034819Y-101742952D01*
X196034819Y-101742952D02*
X196034819Y-101647714D01*
X196034819Y-103028666D02*
X196034819Y-102457238D01*
X196034819Y-102742952D02*
X195034819Y-102742952D01*
X195034819Y-102742952D02*
X195177676Y-102647714D01*
X195177676Y-102647714D02*
X195272914Y-102552476D01*
X195272914Y-102552476D02*
X195320533Y-102457238D01*
D11*
%TO.C,J1*%
X188800000Y-90832000D02*
X189910000Y-90832000D01*
X188800000Y-92162000D02*
X188800000Y-90832000D01*
X190960000Y-94342000D02*
X191370000Y-94342000D01*
X190960000Y-95062000D02*
X191370000Y-95062000D01*
X190960000Y-96882000D02*
X191370000Y-96882000D01*
X190960000Y-97602000D02*
X191370000Y-97602000D01*
X190960000Y-99422000D02*
X191370000Y-99422000D01*
X190960000Y-100142000D02*
X191370000Y-100142000D01*
X190960000Y-101962000D02*
X191370000Y-101962000D01*
X190960000Y-102682000D02*
X191370000Y-102682000D01*
X190960000Y-104502000D02*
X191370000Y-104502000D01*
X190960000Y-105222000D02*
X191370000Y-105222000D01*
X190960000Y-107042000D02*
X191370000Y-107042000D01*
X190960000Y-107762000D02*
X191370000Y-107762000D01*
X190960000Y-109582000D02*
X191370000Y-109582000D01*
X190960000Y-110302000D02*
X191370000Y-110302000D01*
X190960000Y-112122000D02*
X191370000Y-112122000D01*
X190960000Y-112842000D02*
X191370000Y-112842000D01*
X191020000Y-91802000D02*
X191370000Y-91802000D01*
X191020000Y-92522000D02*
X191370000Y-92522000D01*
X191370000Y-90832000D02*
X200000000Y-90832000D01*
X191370000Y-90952000D02*
X200000000Y-90952000D01*
X191370000Y-91070095D02*
X200000000Y-91070095D01*
X191370000Y-91188190D02*
X200000000Y-91188190D01*
X191370000Y-91306285D02*
X200000000Y-91306285D01*
X191370000Y-91424380D02*
X200000000Y-91424380D01*
X191370000Y-91542475D02*
X200000000Y-91542475D01*
X191370000Y-91660570D02*
X200000000Y-91660570D01*
X191370000Y-91778665D02*
X200000000Y-91778665D01*
X191370000Y-91896760D02*
X200000000Y-91896760D01*
X191370000Y-92014855D02*
X200000000Y-92014855D01*
X191370000Y-92132950D02*
X200000000Y-92132950D01*
X191370000Y-92251045D02*
X200000000Y-92251045D01*
X191370000Y-92369140D02*
X200000000Y-92369140D01*
X191370000Y-92487235D02*
X200000000Y-92487235D01*
X191370000Y-92605330D02*
X200000000Y-92605330D01*
X191370000Y-92723425D02*
X200000000Y-92723425D01*
X191370000Y-92841520D02*
X200000000Y-92841520D01*
X191370000Y-92959615D02*
X200000000Y-92959615D01*
X191370000Y-93077710D02*
X200000000Y-93077710D01*
X191370000Y-93195805D02*
X200000000Y-93195805D01*
X191370000Y-93313900D02*
X200000000Y-93313900D01*
X191370000Y-93432000D02*
X200000000Y-93432000D01*
X191370000Y-95972000D02*
X200000000Y-95972000D01*
X191370000Y-98512000D02*
X200000000Y-98512000D01*
X191370000Y-101052000D02*
X200000000Y-101052000D01*
X191370000Y-103592000D02*
X200000000Y-103592000D01*
X191370000Y-106132000D02*
X200000000Y-106132000D01*
X191370000Y-108672000D02*
X200000000Y-108672000D01*
X191370000Y-111212000D02*
X200000000Y-111212000D01*
X191370000Y-113812000D02*
X191370000Y-90832000D01*
X191370000Y-113812000D02*
X200000000Y-113812000D01*
X200000000Y-113812000D02*
X200000000Y-90832000D01*
%TD*%
M02*
