M48
; DRILL file {KiCad 8.0.5} date 2024-11-04T18:15:37+0100
; FORMAT={-:-/ absolute / inch / decimal}
; #@! TF.CreationDate,2024-11-04T18:15:37+01:00
; #@! TF.GenerationSoftware,Kicad,Pcbnew,8.0.5
; #@! TF.FileFunction,Plated,1,4,PTH
FMAT,2
INCH
; #@! TA.AperFunction,Plated,PTH,ViaDrill
T1C0.0157
; #@! TA.AperFunction,Plated,PTH,ComponentDrill
T2C0.0315
; #@! TA.AperFunction,Plated,PTH,ComponentDrill
T3C0.0394
%
G90
G05
T1
X4.1Y-3.16
X4.29Y-3.73
X4.31Y-3.62
X4.73Y-3.41
X4.87Y-3.38
X4.89Y-3.64
X4.95Y-2.78
X4.96Y-3.08
X4.96Y-3.73
X4.97Y-3.67
X5.05Y-3.64
X5.13Y-3.39
X5.15Y-4.31
X5.16Y-3.67
X5.19Y-3.92
X5.2Y-3.41
X5.31Y-2.94
X5.31Y-3.01
X5.41Y-3.52
X5.51Y-4.2
X5.57Y-4.02
X5.59Y-3.29
X5.62Y-3.11
X5.64Y-4.48
X5.65Y-3.49
X5.82Y-3.22
X5.8704Y-3.1996
X6.0Y-4.34
X6.08Y-3.39
X6.15Y-2.69
X6.35Y-4.18
X6.36Y-2.69
X6.715Y-4.575
X6.8093Y-4.5793
X6.99Y-3.81
T2
X4.04Y-3.5308
X4.04Y-3.6292
X4.04Y-3.9708
X4.04Y-4.0692
X4.19Y-2.7
X4.19Y-2.8
X4.19Y-2.9
X4.19Y-3.0
X4.19Y-3.1
X4.19Y-3.2
X4.19Y-3.3
X4.2002Y-3.53
X4.2002Y-3.83
X4.2022Y-3.9684
X4.2022Y-4.2684
X4.3002Y-3.53
X4.3002Y-3.83
X4.3022Y-3.9684
X4.3022Y-4.2684
X4.4002Y-3.53
X4.4002Y-3.83
X4.4022Y-3.9684
X4.4022Y-4.2684
X4.49Y-2.7
X4.49Y-2.8
X4.49Y-2.9
X4.49Y-3.0
X4.49Y-3.1
X4.49Y-3.2
X4.49Y-3.3
X4.5002Y-3.53
X4.5002Y-3.83
X4.5022Y-3.9684
X4.5022Y-4.2684
X4.6002Y-3.53
X4.6002Y-3.83
X4.6022Y-3.9684
X4.6022Y-4.2684
X4.64Y-2.7
X4.64Y-2.7984
X4.7002Y-3.53
X4.7002Y-3.83
X4.7022Y-3.9684
X4.7022Y-4.2684
X4.79Y-2.6998
X4.79Y-2.7998
X4.79Y-2.8998
X4.79Y-2.9998
X4.79Y-3.0998
X4.79Y-3.1998
X4.79Y-3.2998
X4.8002Y-3.53
X4.8002Y-3.83
X4.8022Y-3.9684
X4.8022Y-4.2684
X4.9002Y-3.53
X4.9002Y-3.83
X4.9022Y-3.9684
X4.9022Y-4.2684
X5.0002Y-3.53
X5.0002Y-3.83
X5.0022Y-3.9684
X5.0022Y-4.2684
X5.09Y-2.6998
X5.09Y-2.7998
X5.09Y-2.8998
X5.09Y-2.9998
X5.09Y-3.0998
X5.09Y-3.1998
X5.09Y-3.2998
X5.1002Y-3.53
X5.1002Y-3.83
X5.1022Y-3.9684
X5.1022Y-4.2684
X5.2396Y-2.7008
X5.2396Y-2.7992
X5.3896Y-2.6996
X5.3896Y-2.7996
X5.3896Y-2.8996
X5.3896Y-2.9996
X5.3896Y-3.0996
X5.3896Y-3.1996
X5.3896Y-3.2996
X5.3896Y-3.3996
X5.39Y-3.62
X5.39Y-3.72
X5.39Y-3.82
X5.39Y-3.92
X5.39Y-4.02
X5.39Y-4.12
X5.39Y-4.22
X5.6896Y-2.6996
X5.6896Y-2.7996
X5.6896Y-2.8996
X5.6896Y-2.9996
X5.6896Y-3.0996
X5.6896Y-3.1996
X5.6896Y-3.2996
X5.6896Y-3.3996
X5.69Y-3.62
X5.69Y-3.72
X5.69Y-3.82
X5.69Y-3.92
X5.69Y-4.02
X5.69Y-4.12
X5.69Y-4.22
X5.8396Y-2.7008
X5.8396Y-2.7992
X5.84Y-3.6208
X5.84Y-3.7192
X5.9896Y-2.6996
X5.9896Y-2.7996
X5.9896Y-2.8996
X5.9896Y-2.9996
X5.9896Y-3.0996
X5.9896Y-3.1996
X5.9896Y-3.2996
X5.9896Y-3.3996
X5.99Y-3.6202
X5.99Y-3.7202
X5.99Y-3.8202
X5.99Y-3.9202
X5.99Y-4.0202
X5.99Y-4.1202
X5.99Y-4.2202
X6.1016Y-4.46
X6.2Y-4.46
X6.2896Y-2.6996
X6.2896Y-2.7996
X6.2896Y-2.8996
X6.2896Y-2.9996
X6.2896Y-3.0996
X6.2896Y-3.1996
X6.2896Y-3.2996
X6.2896Y-3.3996
X6.29Y-3.6202
X6.29Y-3.7202
X6.29Y-3.8202
X6.29Y-3.9202
X6.29Y-4.0202
X6.29Y-4.1202
X6.29Y-4.2202
X6.4396Y-2.7
X6.4396Y-2.7984
X6.44Y-3.6208
X6.44Y-3.7192
X6.44Y-4.1408
X6.44Y-4.2392
X6.5896Y-2.7998
X6.5896Y-2.8998
X6.5896Y-2.9998
X6.5896Y-3.0998
X6.5896Y-3.1998
X6.5896Y-3.2998
X6.5896Y-3.3998
X6.5896Y-3.708
X6.5896Y-4.008
X6.5896Y-4.14
X6.5896Y-4.44
X6.5908Y-3.55
X6.6892Y-3.55
X6.6896Y-3.708
X6.6896Y-4.008
X6.6896Y-4.14
X6.6896Y-4.44
X6.7896Y-3.708
X6.7896Y-4.008
X6.7896Y-4.14
X6.7896Y-4.44
X6.7908Y-2.65
X6.8892Y-2.65
X6.8896Y-2.7998
X6.8896Y-2.8998
X6.8896Y-2.9998
X6.8896Y-3.0998
X6.8896Y-3.1998
X6.8896Y-3.2998
X6.8896Y-3.3998
X6.8896Y-3.708
X6.8896Y-4.008
X6.8896Y-4.14
X6.8896Y-4.44
X6.9896Y-3.708
X6.9896Y-4.008
X6.9896Y-4.14
X6.9896Y-4.44
X7.0896Y-3.708
X7.0896Y-4.008
X7.0896Y-4.14
X7.0896Y-4.44
X7.1608Y-2.94
X7.17Y-3.1
X7.17Y-3.4
X7.1896Y-3.708
X7.1896Y-4.008
X7.1896Y-4.14
X7.1896Y-4.44
X7.2592Y-2.94
X7.27Y-3.1
X7.27Y-3.4
X7.2896Y-3.708
X7.2896Y-4.008
X7.2896Y-4.14
X7.2896Y-4.44
X7.37Y-3.1
X7.37Y-3.4
X7.47Y-3.1
X7.47Y-3.4
X7.57Y-3.1
X7.57Y-3.4
X7.67Y-3.1
X7.67Y-3.4
X7.77Y-3.1
X7.77Y-3.4
T3
X4.2965Y-4.43
X4.2965Y-4.53
X4.3965Y-4.43
X4.3965Y-4.53
X4.4965Y-4.43
X4.4965Y-4.53
X4.5965Y-4.43
X4.5965Y-4.53
X4.6965Y-4.43
X4.6965Y-4.53
X4.7965Y-4.43
X4.7965Y-4.53
X4.8965Y-4.43
X4.8965Y-4.53
X4.9965Y-4.43
X4.9965Y-4.53
X5.0965Y-4.43
X5.0965Y-4.53
X5.1965Y-4.43
X5.1965Y-4.53
X5.2965Y-4.43
X5.2965Y-4.53
X5.3965Y-4.43
X5.3965Y-4.53
X5.4965Y-4.43
X5.4965Y-4.53
X5.5965Y-4.43
X5.5965Y-4.53
X5.6965Y-4.43
X5.6965Y-4.53
X5.7965Y-4.43
X5.7965Y-4.53
X7.07Y-2.69
X7.07Y-2.79
X7.17Y-2.69
X7.17Y-2.79
X7.27Y-2.69
X7.27Y-2.79
X7.37Y-2.69
X7.37Y-2.79
X7.47Y-2.69
X7.47Y-2.79
X7.4768Y-3.6284
X7.4768Y-3.7284
X7.4768Y-3.8284
X7.4768Y-3.9284
X7.4768Y-4.0284
X7.4768Y-4.1284
X7.4768Y-4.2284
X7.4768Y-4.3284
X7.4768Y-4.4284
X7.57Y-2.69
X7.57Y-2.79
X7.67Y-2.69
X7.67Y-2.79
X7.77Y-2.69
X7.77Y-2.79
M30
